<?xml version="1.0" encoding="UTF-8" standalone="no"?>
<!-- Created with Inkscape (http://www.inkscape.org/) -->

<svg
   width="48.064621"
   height="33.307941"
   viewBox="0 0 12.717098 8.8127262"
   version="1.1"
   id="svg5"
   inkscape:version="1.1.1 (3bf5ae0d25, 2021-09-20)"
   sodipodi:docname="ergo_card.svg"
   xmlns:inkscape="http://www.inkscape.org/namespaces/inkscape"
   xmlns:sodipodi="http://sodipodi.sourceforge.net/DTD/sodipodi-0.dtd"
   xmlns="http://www.w3.org/2000/svg"
   xmlns:svg="http://www.w3.org/2000/svg"
   xmlns:rdf="http://www.w3.org/1999/02/22-rdf-syntax-ns#"
   xmlns:cc="http://creativecommons.org/ns#"
   xmlns:dc="http://purl.org/dc/elements/1.1/">
  <title
     id="title409">ergo_card</title>
  <sodipodi:namedview
     id="namedview7"
     pagecolor="#ffffff"
     bordercolor="#666666"
     borderopacity="1.0"
     inkscape:pageshadow="2"
     inkscape:pageopacity="0.0"
     inkscape:pagecheckerboard="0"
     inkscape:document-units="mm"
     showgrid="false"
     units="px"
     inkscape:zoom="11.859035"
     inkscape:cx="5.7761868"
     inkscape:cy="27.826885"
     inkscape:window-width="1538"
     inkscape:window-height="1040"
     inkscape:window-x="1962"
     inkscape:window-y="3"
     inkscape:window-maximized="0"
     inkscape:current-layer="layer1"
     fit-margin-top="0"
     fit-margin-left="0"
     fit-margin-right="0"
     fit-margin-bottom="0" />
  <defs
     id="defs2" />
  <g
     inkscape:label="Calque 1"
     inkscape:groupmode="layer"
     id="layer1"
     transform="translate(-0.02231068,-1.7848558)">
    <rect
       style="fill:#000000;stroke-width:0.317575"
       id="rect53"
       width="12.717097"
       height="8.812726"
       x="0.022310682"
       y="1.7848558"
       ry="1.2510177" />
    <rect
       style="fill:#ffd42a;stroke-width:0.299891"
       id="rect225"
       width="1.7402343"
       height="1.2493988"
       x="1.8964093"
       y="3.1234977"
       ry="0.28736162" />
    <g
       id="main"
       transform="matrix(0.08647913,0,0,0.08021949,5.9640295,4.874678)"
       style="fill:#ffffff">
	<g
   id="Group-16"
   transform="translate(-70,-35)"
   style="fill:#ffffff">
		<g
   transform="translate(70,34)"
   id="g255"
   style="fill:#ffffff">
			<g
   id="Group-15"
   transform="translate(0,0.83028)"
   style="fill:#ffffff">
				<path
   id="Fill-9"
   class="st0"
   d="M 11.2,47.8 29.5,55.2 47.7,47.4 55,29.1 47.2,10.9 28.9,3.6 10.7,11.4 3.4,29.7 Z m 18.3,10.8 c -0.2,0 -0.4,0 -0.6,-0.1 L 9.3,50.6 C 8.9,50.4 8.6,50.1 8.4,49.7 L 0.1,30.3 C -0.1,29.9 -0.1,29.5 0.1,29 L 8,9.5 C 8.2,9.1 8.5,8.8 8.9,8.6 L 28.3,0.3 c 0.4,-0.2 0.8,-0.2 1.3,0 L 49.2,8.2 C 49.5,8.3 49.8,8.6 50,9 l 8.3,19.4 c 0.2,0.4 0.2,0.8 0,1.3 l -7.9,19.6 c -0.2,0.4 -0.5,0.7 -0.9,0.9 l -19.4,8.3 c -0.1,0.1 -0.4,0.1 -0.6,0.1 z"
   style="fill:#ffffff" />

				<polygon
   id="Fill-10"
   class="st0"
   points="25.6,37.7 38,37.7 38,41.5 20.5,41.5 20.5,37.7 28.3,29.1 20.5,21 20.5,17.3 38,17.3 38,21 25.8,21 33.4,29.1 "
   style="fill:#ffffff" />

			</g>

		</g>

	</g>

</g>
  </g>
  <style
     type="text/css"
     id="style246">
	.st0{fill-rule:evenodd;clip-rule:evenodd;}
</style>
  <metadata
     id="metadata407">
    <rdf:RDF>
      <cc:Work
         rdf:about="">
        <dc:title>ergo_card</dc:title>
      </cc:Work>
    </rdf:RDF>
  </metadata>
</svg>
